<?xml version="1.0" encoding="UTF-8" standalone="no"?>
<svg
   xmlns:dc="http://purl.org/dc/elements/1.1/"
   xmlns:cc="http://creativecommons.org/ns#"
   xmlns:rdf="http://www.w3.org/1999/02/22-rdf-syntax-ns#"
   xmlns:svg="http://www.w3.org/2000/svg"
   xmlns="http://www.w3.org/2000/svg"
   xmlns:sodipodi="http://sodipodi.sourceforge.net/DTD/sodipodi-0.dtd"
   xmlns:inkscape="http://www.inkscape.org/namespaces/inkscape"
   width="574pt"
   height="574pt"
   viewBox="0 0 574 574"
   version="1.1"
   id="svg35"
   sodipodi:docname="favicon.svg"
   inkscape:version="0.92.4 (5da689c313, 2019-01-14)">
  <metadata
     id="metadata41">
    <rdf:RDF>
      <cc:Work
         rdf:about="">
        <dc:format>image/svg+xml</dc:format>
        <dc:type
           rdf:resource="http://purl.org/dc/dcmitype/StillImage" />
      </cc:Work>
    </rdf:RDF>
  </metadata>
  <defs
     id="defs39" />
  <sodipodi:namedview
     pagecolor="#ffffff"
     bordercolor="#666666"
     borderopacity="1"
     objecttolerance="10"
     gridtolerance="10"
     guidetolerance="10"
     inkscape:pageopacity="0"
     inkscape:pageshadow="2"
     inkscape:window-width="3840"
     inkscape:window-height="2066"
     id="namedview37"
     showgrid="false"
     inkscape:zoom="1.2334495"
     inkscape:cx="664.94834"
     inkscape:cy="442.68201"
     inkscape:window-x="-11"
     inkscape:window-y="-11"
     inkscape:window-maximized="1"
     inkscape:current-layer="g3764" />
  <g
     id="g3764"
     transform="matrix(1.1611998,0,0,1.1611998,-42.995689,-42.995689)">
    <g
       id="#d1d5e4ff">
      <path
         id="path2"
         d="M 0,0 H 0.08 C 0.06,0.02 0.02,0.06 0,0.08 Z"
         inkscape:connector-curvature="0"
         style="opacity:1;fill:#d1d5e4" />
      <path
         id="path4"
         d="m 488.47,124.42 c 7.12,-12.97 13.81,-26.38 17.44,-40.81 11.89,42.09 -2.22,84.88 -13.81,125.26 -5.31,4.5 -9.11,10.45 -13.23,15.99 -12.94,17.5 -28.69,32.6 -44.13,47.85 -11.07,10.62 -23.25,19.97 -35.47,29.2 -2.13,-9.17 -4.18,-18.35 -6.22,-27.53 12.13,-8.01 22.84,-18.08 31.96,-29.38 27.45,-32.53 45.75,-71.84 57.03,-112.68 2.25,-2.54 4.86,-4.83 6.43,-7.9 z"
         inkscape:connector-curvature="0"
         style="opacity:1;fill:#d1d5e4" />
      <path
         id="path6"
         d="m 514.22,181.11 c 3.34,-5.64 5.61,-11.81 8.65,-17.61 5.71,19.54 1.64,39.96 -3.36,59.17 -5.16,17.4 -12.09,34.26 -20.51,50.33 -5.07,9.88 -12.51,18.28 -17.94,27.93 -6.91,1.96 -12.3,7.14 -18.31,10.81 -16.51,11.16 -35.18,18.32 -53.25,26.42 -3.66,-11.16 -6.99,-22.44 -9.67,-33.87 21.32,-14.36 40.04,-32.16 57.9,-50.54 13.02,-13.66 25.44,-28.15 34.37,-44.88 2.65,-2.58 5.85,-4.68 7.89,-7.83 4.51,-6.81 10.39,-12.67 14.23,-19.93 z"
         inkscape:connector-curvature="0"
         style="opacity:1;fill:#d1d5e4" />
      <path
         id="path8"
         d="m 510.92,275.93 c 3.51,-3.33 4.9,-8.03 6.81,-12.32 3.44,21.93 -3.57,44.12 -13.66,63.42 -4.81,10.94 -12.54,20.12 -19.03,30.04 -4.37,0.67 -8.33,2.72 -12.29,4.57 -14.89,7.04 -30.96,11.09 -46.96,14.65 -6.38,-11.57 -11.92,-23.64 -15.74,-36.3 15.4,-4.84 29.93,-12.07 44.04,-19.85 9.66,-5.38 19.15,-11.32 26.97,-19.21 12.71,-4.29 20.89,-15.75 29.86,-25 z"
         inkscape:connector-curvature="0"
         style="opacity:1;fill:#d1d5e4" />
      <path
         id="path10"
         d="m 485.04,357.07 c 10.3,-3.23 19.51,-9.66 27.16,-17.2 -6.44,15.68 -18.65,28.07 -30.4,39.93 -22.52,23.27 -52.64,37.35 -83.21,46.76 -0.28,0.65 -0.84,1.95 -1.12,2.6 -0.78,-4.02 -1.44,-8.04 -2.08,-12.07 2.79,-9.41 5.36,-18.88 7.17,-28.53 -0.15,-3.31 2.07,-5.59 4.08,-7.76 9.49,8.63 21.22,14.37 33.72,17.11 -4.39,-6.13 -8.72,-12.31 -12.8,-18.64 19.64,-5.66 41.1,-9.09 57.48,-22.2 z"
         inkscape:connector-curvature="0"
         style="opacity:1;fill:#d1d5e4" />
    </g>
    <g
       id="#c1c5d3ff">
      <path
         id="path13"
         d="m 482.54,44.57 c 0.28,0.27 0.85,0.82 1.13,1.1 8.28,28.35 2.05,58.03 -1.63,86.65 -11.28,40.84 -29.58,80.15 -57.03,112.68 -9.12,11.3 -19.83,21.37 -31.96,29.38 -5.41,-21.98 -9.02,-44.59 -18.23,-65.43 34.9,-32.89 61.49,-73.27 85.74,-114.34 8.45,-16.09 18.49,-31.94 21.98,-50.04 z"
         inkscape:connector-curvature="0"
         style="opacity:1;fill:#c1c5d3" />
      <path
         id="path15"
         d="m 250.1,66.1 c 1.97,-4.13 8.18,-6.24 11.76,-2.93 4,5.65 3.77,12.8 5.8,19.18 3.99,12.62 11.81,23.61 20.37,33.54 10.17,12.79 23.01,23.33 31.94,37.12 10.02,14.49 15.63,31.38 20.88,48.04 6.69,22.2 9.42,45.58 7.86,68.72 -1.22,11.05 -5.5,21.48 -10.8,31.15 -3.73,6.37 -4.55,13.83 -6.14,20.91 -5.03,23.95 -13.16,47.89 -10.39,72.72 2.7,17.97 10.23,36.08 23.55,48.75 -5.68,-25.25 -1.67,-51.7 7.52,-75.62 5.62,27.77 16.67,54.66 34.38,76.98 -8.78,20.14 -19.16,39.83 -33.62,56.54 -8.35,9.64 -16.82,19.84 -28.56,25.46 -2.07,0.81 -4.66,2.02 -6.63,0.34 -16.6,-13.06 -33.04,-27.98 -40.9,-48.14 -6.61,-16.21 -1.97,-34.26 -7.27,-50.76 -3.09,-8.63 -9.13,-15.97 -15.99,-21.91 -2.34,-1.27 -5.01,-5.47 -8.13,-3.46 -8.58,4.5 -17.04,9.61 -26.78,11.23 -22.65,4.51 -46.56,5.52 -68.93,-1.01 -19.36,-4.11 -34.66,-19.1 -44.05,-35.92 -5.04,-8.59 -6.86,-19.47 -2.84,-28.83 3.66,-3.96 8.84,-5.85 13.05,-9.07 5.67,-5.34 9.69,-14.03 6.37,-21.7 -2.87,-9.33 -8.22,-17.68 -10.96,-27.08 -4.31,-10.33 -4.75,-21.64 -7.3,-32.42 18.4,-25.61 45.25,-45.69 76.14,-53.14 -11.35,17.71 -30.4,31.2 -51.76,32.8 30.54,12.82 64.93,4.29 94.4,-7.49 7.97,-3.1 15.7,-6.9 22.58,-12.02 -10.09,-24.73 -17.91,-51.07 -16.63,-78.07 0.05,-17.27 3.32,-34.43 9.38,-50.58 3.52,-7.95 6.66,-16.2 11.7,-23.33 z"
         inkscape:connector-curvature="0"
         style="opacity:1;fill:#c1c5d3" />
      <path
         id="path17"
         d="m 478.87,224.86 c 4.12,-5.54 7.92,-11.49 13.23,-15.99 -8.93,16.73 -21.35,31.22 -34.37,44.88 -17.86,18.38 -36.58,36.18 -57.9,50.54 -0.14,-0.6 -0.42,-1.79 -0.56,-2.38 12.22,-9.23 24.4,-18.58 35.47,-29.2 15.44,-15.25 31.19,-30.35 44.13,-47.85 z"
         inkscape:connector-curvature="0"
         style="opacity:1;fill:#c1c5d3" />
      <path
         id="path19"
         d="m 103.71,258.69 c 0.01,-0.02 0.03,-0.05 0.04,-0.06 -0.01,0.01 -0.03,0.04 -0.04,0.06 z"
         inkscape:connector-curvature="0"
         style="opacity:1;fill:#c1c5d3" />
      <path
         id="path21"
         d="m 462.75,311.74 c 6.01,-3.67 11.4,-8.85 18.31,-10.81 -7.82,7.89 -17.31,13.83 -26.97,19.21 -14.11,7.78 -28.64,15.01 -44.04,19.85 -0.14,-0.46 -0.41,-1.37 -0.55,-1.83 18.07,-8.1 36.74,-15.26 53.25,-26.42 z"
         inkscape:connector-curvature="0"
         style="opacity:1;fill:#c1c5d3" />
      <path
         id="path23"
         d="m 472.75,361.64 c 3.96,-1.85 7.92,-3.9 12.29,-4.57 -16.38,13.11 -37.84,16.54 -57.48,22.2 -0.62,-0.98 -1.21,-1.98 -1.77,-2.98 16,-3.56 32.07,-7.61 46.96,-14.65 z"
         inkscape:connector-curvature="0"
         style="opacity:1;fill:#c1c5d3" />
      <path
         id="path25"
         d="m 389.96,357.71 c 4.99,8.08 10.05,16.21 16.68,23.09 -2.01,2.17 -4.23,4.45 -4.08,7.76 -1.81,9.65 -4.38,19.12 -7.17,28.53 -4.71,-19.41 -5.87,-39.47 -5.43,-59.38 z"
         inkscape:connector-curvature="0"
         style="opacity:1;fill:#c1c5d3" />
    </g>
    <g
       id="#eff4b4ff">
      <path
         id="path28"
         d="m 187.82,86.72 c 16.83,-1.3 34.09,-1.41 50.58,2.71 -6.06,16.15 -9.33,33.31 -9.38,50.58 -1.28,27 6.54,53.34 16.63,78.07 -6.88,5.12 -14.61,8.92 -22.58,12.02 -29.47,11.78 -63.86,20.31 -94.4,7.49 21.36,-1.6 40.41,-15.09 51.76,-32.8 -30.89,7.45 -57.74,27.53 -76.14,53.14 l -0.54,0.7 c -0.01,0.01 -0.03,0.04 -0.04,0.06 -17.62,23.17 -24.09,53.09 -23.72,81.74 -1.57,-1.95 -3.23,-3.9 -4.2,-6.24 -10.56,-23.25 -14.98,-48.94 -14.97,-74.37 -5.89,7.81 -10.59,16.43 -14.16,25.55 -9.84,-28.88 -2.33,-60.19 6.33,-88.38 13.46,-31.51 35.34,-59.79 63.42,-79.58 20.85,-15.66 44.98,-28.7 71.41,-30.69 z"
         inkscape:connector-curvature="0"
         style="opacity:1;fill:#eff4b4" />
      <path
         id="path30"
         d="m 288.03,115.89 c 7.34,4.11 13.95,9.32 20.34,14.74 23.71,16.75 43.15,38.96 58.6,63.41 3.01,4.75 5.66,9.73 7.85,14.91 9.21,20.84 12.82,43.45 18.23,65.43 2.04,9.18 4.09,18.36 6.22,27.53 0.14,0.59 0.42,1.78 0.56,2.38 2.68,11.43 6.01,22.71 9.67,33.87 0.14,0.46 0.41,1.37 0.55,1.83 3.82,12.66 9.36,24.73 15.74,36.3 0.56,1 1.15,2 1.77,2.98 4.08,6.33 8.41,12.51 12.8,18.64 -12.5,-2.74 -24.23,-8.48 -33.72,-17.11 -6.63,-6.88 -11.69,-15.01 -16.68,-23.09 -0.44,19.91 0.72,39.97 5.43,59.38 0.64,4.03 1.3,8.05 2.08,12.07 3.11,15.18 9.14,29.61 16.44,43.23 -10.14,-8.04 -18.92,-17.73 -27.08,-27.73 -17.71,-22.32 -28.76,-49.21 -34.38,-76.98 -9.19,23.92 -13.2,50.37 -7.52,75.62 -13.32,-12.67 -20.85,-30.78 -23.55,-48.75 -2.77,-24.83 5.36,-48.77 10.39,-72.72 1.59,-7.08 2.41,-14.54 6.14,-20.91 5.3,-9.67 9.58,-20.1 10.8,-31.15 1.56,-23.14 -1.17,-46.52 -7.86,-68.72 -5.25,-16.66 -10.86,-33.55 -20.88,-48.04 -8.93,-13.79 -21.77,-24.33 -31.94,-37.12 z"
         inkscape:connector-curvature="0"
         style="opacity:1;fill:#eff4b4" />
      <path
         id="path32"
         d="m 79.99,340.43 c 0.66,0.28 0.66,0.28 0,0 z"
         inkscape:connector-curvature="0"
         style="opacity:1;fill:#eff4b4" />
    </g>
  </g>
</svg>
