<?xml version="1.0" encoding="UTF-8" standalone="no"?>
<svg
   xmlns:dc="http://purl.org/dc/elements/1.1/"
   xmlns:cc="http://creativecommons.org/ns#"
   xmlns:rdf="http://www.w3.org/1999/02/22-rdf-syntax-ns#"
   xmlns:svg="http://www.w3.org/2000/svg"
   xmlns="http://www.w3.org/2000/svg"
   xmlns:xlink="http://www.w3.org/1999/xlink"
   xmlns:sodipodi="http://sodipodi.sourceforge.net/DTD/sodipodi-0.dtd"
   xmlns:inkscape="http://www.inkscape.org/namespaces/inkscape"
   viewBox="0 0 124.47382 133.44418"
   version="1.1"
   id="svg104"
   sodipodi:docname="favicon.svg"
   width="124.47383"
   height="133.44418"
   inkscape:version="1.0.2 (e86c870879, 2021-01-15)">
  <metadata
     id="metadata108">
    <rdf:RDF>
      <cc:Work
         rdf:about="">
        <dc:format>image/svg+xml</dc:format>
        <dc:type
           rdf:resource="http://purl.org/dc/dcmitype/StillImage" />
      </cc:Work>
    </rdf:RDF>
  </metadata>
  <sodipodi:namedview
     pagecolor="#ffffff"
     bordercolor="#666666"
     borderopacity="1"
     objecttolerance="10"
     gridtolerance="10"
     guidetolerance="10"
     inkscape:pageopacity="0"
     inkscape:pageshadow="2"
     inkscape:window-width="1920"
     inkscape:window-height="1020"
     id="namedview106"
     showgrid="false"
     inkscape:zoom="6.1298662"
     inkscape:cx="66.723103"
     inkscape:cy="55.869826"
     inkscape:window-x="0"
     inkscape:window-y="0"
     inkscape:window-maximized="1"
     inkscape:current-layer="svg104" />
  <defs
     id="defs86">
    <radialGradient
       gradientUnits="userSpaceOnUse"
       gradientTransform="matrix(0.8135,-0.88834,0.44989,0.41198,-45.2,176.224)"
       r="55.813999"
       fy="143.763"
       fx="103.676"
       cy="143.763"
       cx="103.676"
       id="b"
       xlink:href="#a" />
    <linearGradient
       id="a">
      <stop
         offset="0"
         stop-color="#ea428b"
         stop-opacity=".006"
         id="stop79" />
      <stop
         offset=".551"
         stop-color="#ea428b"
         stop-opacity=".502"
         id="stop81" />
      <stop
         offset="1"
         stop-color="#ea428b"
         id="stop83" />
    </linearGradient>
  </defs>
  <path
     d="m 24.744603,88.986 c 8.33,-7.869 41.448,-38.907 57.561,-50.346 16.103,-11.432 19.702997,-5.943 9.246,12.377 -10.923,19.135 -44.79,64.246 -44.79,64.246 -11.316,-4.228 -20.907,-12.218 -22.017,-26.277 z"
     fill="#cc9cdf"
     id="path88" />
  <path
     d="m 71.130603,47.349 c -5.225,13.728 4.42,19.016 12.704,15.68 m -36.355,4.941 c -5.53,21.748 9.389,23.493 18.042,21.705"
     fill="none"
     stroke="#a46bbd"
     stroke-width="2"
     stroke-miterlimit="15"
     id="path90" />
  <path
     d="m 93.259603,31.012 c -0.681,0.046 -1.381,0.18 -2.102,0.385 -2.882,0.82 -6.205,2.79 -10.14,6.039 l -52.807,44.264 c -0.94,0.788 -2.712,3.215 -3.349,5.166 -0.22,0.673 -0.118,2.12 -0.118,2.12 l 58.82,-48.464 c 3.679,-3.038 6.702,-4.713 8.687,-5.278 0.993,-0.282 1.696,-0.28 2.08,-0.19 0.384,0.089 0.489,0.177 0.652,0.442 0.328,0.53 0.567,2.335 -0.289,5.131 -0.855,2.797 -2.653,6.477 -5.511,10.739 l -42.422,63.897 c 0,0 2.079,-0.877 2.964,-1.556 3.524,-2.706 9.033,-9.799 9.033,-9.799 l 10.547,-15.724 23.2,-34.59 c 3.016,-4.497 4.992,-8.457 6.014,-11.799 1.022,-3.342 1.243,-6.176 -0.133,-8.402 -0.688,-1.113 -1.858,-1.934 -3.143,-2.234 a 6.685,6.685 0 0 0 -1.984,-0.147 z"
     style="shape-padding:0;isolation:auto;mix-blend-mode:normal;solid-color:#000000;solid-opacity:1"
     color="#000000"
     font-weight="400"
     font-family="sans-serif"
     overflow="visible"
     fill="#a46bbd"
     id="path92" />
  <g
     id="g102"
     transform="translate(6.0304024e-4)">
    <path
       d="m 119.154,8.848 c 4.08,4.905 -2.505,12.518 -3.486,18.823 -0.799,5.138 0.125,10.71 -1.952,15.477 -3.241,7.441 -13.342,10.892 -15.616,18.684 -2.442,8.367 6.64,17.863 3.346,25.934 -3.488,8.549 -15.239,10.605 -21.75,17.15 -7.242,7.277 -6.447,18.184 -18.947,24.28 0,0 -9.328,2.62 -21.35,-8.246 -7.076,-6.396 -20.9,-2.049 -27.05,-9.341 C 8.281,106.783 10.676,99.08 9.282,92.925 7.957,87.072 2.804,81.456 4.262,75.635 8.45,58.92 19.055,62.27 26.154,55.278 c 5.598,-5.512 9.895,-12.481 16.314,-17.01 7.037,-4.966 16.694,-5.403 23.564,-10.597 4.842,-3.66 6.514,-10.81 11.712,-13.943 6.597,-3.977 14.928,-4.062 22.588,-4.88 6.239,-0.667 14.81,-4.824 18.823,-0.5 z"
       opacity="0.622"
       fill="none"
       stroke="#ea428b"
       stroke-width="8"
       stroke-miterlimit="15"
       stroke-opacity="0.43"
       id="path94" />
    <path
       d="m 158.365,86.65 c 3.911,4.7 -2.4,11.997 -3.34,18.04 -0.766,4.924 0.119,10.264 -1.871,14.833 -3.107,7.132 -12.788,10.44 -14.968,17.907 -2.34,8.02 6.364,17.121 3.208,24.856 -3.343,8.194 -14.606,10.164 -20.847,16.437 -6.94,6.975 -6.179,17.429 -18.159,23.272 0,0 -8.94,2.51 -20.462,-7.904 -6.782,-6.13 -20.032,-1.963 -25.925,-8.953 -3.899,-4.625 -1.604,-12.008 -2.94,-17.907 -1.27,-5.61 -6.208,-10.992 -4.81,-16.57 4.013,-16.022 14.175,-12.81 20.98,-19.512 5.365,-5.283 9.483,-11.962 15.635,-16.303 6.745,-4.759 16,-5.178 22.584,-10.156 4.64,-3.509 6.243,-10.36 11.226,-13.364 6.323,-3.811 14.308,-3.893 21.649,-4.677 5.98,-0.638 14.195,-4.623 18.04,0 z"
       opacity="0.622"
       fill="url(#b)"
       transform="translate(-41.58,-75.351)"
       id="path96"
       style="fill:url(#b)" />
    <path
       d="m 67.766,95.923 -3.69,4.47 5.624,1.13 -5.674,-0.905 1.844,5.421 -2.06,-5.37 -3.824,4.3 3.62,-4.436 -5.626,-1.163 5.68,0.894 -1.774,-5.443 1.984,5.402 z m -15.016,7.997 -5.724,5.311 7.385,2.523 -7.398,-2.297 1.34,7.696 -1.678,-7.627 -5.953,5.06 5.724,-5.302 -7.293,-2.597 7.344,2.368 -1.379,-7.643 1.718,7.574 z M 6.334,76.484 l 9.556,2.184 -2.438,-9.48 2.832,9.29 6.909,-6.799 -6.605,7.103 9.299,2.66 -9.429,-2.237 2.49,9.366 -2.883,-9.308 -6.888,6.926 6.624,-7.169 z m 31.674,-4.056 2.744,11.51 8.944,-7.707 -8.617,8.017 11.14,4.029 -11.302,-3.455 2.197,11.66 -2.618,-11.552 -9.062,7.653 8.737,-8.056 -11.26,-3.986 11.412,3.436 z m 68.693,-38.344 -9.942,6.454 10.404,5.775 L 96.568,41 l 0.265,11.923 -0.792,-11.98 -10.137,6.22 9.94,-6.645 -10.402,-5.718 10.593,5.404 -0.117,-11.923 0.644,11.833 z m -50.368,26.049 -3.02,2.76 3.892,1.372 -3.934,-1.208 0.721,4.067 -0.906,-4.005 -3.131,2.637 3.032,-2.76 -3.876,-1.405 3.917,1.222 -0.745,-4.043 0.932,4 z m 18.672,-3.832 -0.83,10.037 9.22,-3.826 -9.071,4.195 7.96,6.07 -8.22,-5.733 -1.335,9.896 0.901,-9.946 -9.322,3.747 9.098,-4.109 -7.862,-6.145 8.197,5.826 z"
       fill="#ffffff"
       paint-order="markers fill stroke"
       id="path98" />
    <path
       d="m 85.222,33.607 0.361,2.665 2.2,-1.574 -2.116,1.656 2.446,1.135 -2.507,-1.014 0.293,2.68 -0.392,-2.67 -2.173,1.576 2.123,-1.655 -2.49,-1.12 2.503,1.011 z M 70.65,43.357 67.627,27.751 55.074,37.726 67.105,27.133 52.17,21.31 67.271,26.498 64.868,10.81 l 3.154,15.642 12.4,-10.14 -12.004,10.714 14.88,5.609 -15.096,-5.167 z M 109.24,0 l 0.724,9.189 7.925,-4.865 -7.708,5.183 8.255,4.34 -8.346,-4.016 0.298,9.313 -0.773,-9.252 -7.853,4.992 7.682,-5.292 -8.19,-4.402 8.345,4.016 z m -24.583,81.927 2.561,11.843 9.334,-7.749 -8.997,8.206 11.4,4.17 -11.509,-3.739 2.065,11.86 -2.592,-11.792 -9.306,7.774 8.969,-8.064 -11.37,-4.237 11.629,3.776 z"
       fill="#ffffff"
       paint-order="markers fill stroke"
       id="path100" />
  </g>
</svg>
